# xmcd
#
# Track frame offsets:
#	150
#	17672
#	37880
#	57712
#	74905
#	88980
#	109370
#	124945
#	140825
#	154497
#	177237
#	195062
#
# Disc length: 2848 seconds
#
# Revision: 2
# Processed by: cddbd v1.4PL0 Copyright (c) Steve Scherf et al.
# Submitted via: EasyCDDAExtractor 6.0.0.1
#
DISCID=b70b1e0c
DTITLE=Rosie Flores - Once More With Feeling
DYEAR=1993
DGENRE=Country
TTITLE0=Someday
TTITLE1=My Blue Angel
TTITLE2=Love And Danger
TTITLE3=Try Me
TTITLE4=Ruin This Romance
TTITLE5=Bandera Highway
TTITLE6=It's Over
TTITLE7=Honky Tonk Moon
TTITLE8=Girl Haggard
TTITLE9=Real Man
TTITLE10=Rosebud Blues
TTITLE11=Tumblin Down
EXTD=
EXTT0=
EXTT1=
EXTT2=
EXTT3=
EXTT4=
EXTT5=
EXTT6=
EXTT7=
EXTT8=
EXTT9=
EXTT10=
EXTT11=
PLAYORDER=
